<svg xmlns="http://www.w3.org/2000/svg" version="1.1" xmlns:xlink="http://www.w3.org/1999/xlink" xmlns:svgjs="http://svgjs.dev/svgjs" width="1500" height="560" viewBox="0 0 1500 560"><g transform="matrix(1,0,0,1,-0.9090909090909918,-0.6369458983691061)"><svg viewBox="0 0 396 148" data-background-color="#1d366f" preserveAspectRatio="xMidYMid meet" height="560" width="1500" xmlns="http://www.w3.org/2000/svg" xmlns:xlink="http://www.w3.org/1999/xlink"><g id="tight-bounds" transform="matrix(1,0,0,1,0.2400000000000091,0.16833570171183965)"><svg viewBox="0 0 395.52 147.66332859657632" height="147.66332859657632" width="395.52"><g><svg viewBox="0 0 397.4975999999999 148.40164523955917" height="147.66332859657632" width="395.52"><g><rect width="397.4975999999999" height="2.8454379643495074" x="0" y="83.25492883710757" fill="#08c076" opacity="1" stroke-width="0" stroke="transparent" fill-opacity="1" class="rect-yte-0" data-fill-palette-color="secondary" rx="1%" id="yte-0" data-palette-color="#08c076"></rect></g><g transform="matrix(1,0,0,1,0.9887999999999693,93.54915728404742)"><svg viewBox="0 0 395.52 54.85248795551175" height="54.85248795551175" width="395.52"><g id="textblocktransform"><svg viewBox="0 0 395.52 54.85248795551175" height="54.85248795551175" width="395.52" id="textblock"><g><svg viewBox="0 0 395.52 31.552510558423272" height="31.552510558423272" width="395.52"><g transform="matrix(1,0,0,1,0,0)"><svg width="395.52" viewBox="3.25 -33.13 532.7 42.510000000000005" height="31.552510558423272" data-palette-color="#ffffff"><path d="M7.28 0L3.25 0 4.48-31.95 10.9-31.95 18.48-8.85 18.82-8.85 26.4-31.95 32.85-31.95 34.08 0 30.05 0 29.6-13.48 29.18-27.63 28.73-27.63 20.83-3.68 16.5-3.68 8.6-27.63 8.15-27.63 7.7-13.45 7.28 0ZM59.12 0L55.1 0 55.27-5.93 55.12-6.55 55.12-14.33 55.15-15.75Q55.15-18.73 53.64-20.15 52.12-21.58 48.85-21.58L48.85-21.58Q46.22-21.58 44.04-20.83 41.85-20.08 40.15-19.07L40.15-19.07 40.52-22.53Q41.47-23.1 42.79-23.66 44.1-24.23 45.79-24.6 47.47-24.98 49.5-24.98L49.5-24.98Q52.12-24.98 53.96-24.34 55.8-23.7 56.94-22.5 58.07-21.3 58.6-19.6 59.12-17.9 59.12-15.8L59.12-15.8 59.12 0ZM46.7 0.53L46.7 0.53Q43.07 0.53 41.14-1.24 39.2-3 39.2-6.28L39.2-6.28 39.2-7Q39.2-10.38 41.29-12.04 43.37-13.7 47.92-14.35L47.92-14.35 55.65-15.45 55.87-12.5 48.42-11.43Q45.62-11.03 44.42-10.06 43.22-9.1 43.22-7.23L43.22-7.23 43.22-6.83Q43.22-4.9 44.41-3.88 45.6-2.85 47.97-2.85L47.97-2.85Q50.07-2.85 51.57-3.58 53.07-4.3 54-5.53 54.92-6.75 55.25-8.25L55.25-8.25 55.87-5.5 55.1-5.5Q54.75-3.9 53.79-2.53 52.82-1.15 51.1-0.31 49.37 0.53 46.7 0.53ZM77.35 0.53L77.35 0.53Q75.1 0.53 73.43-0.23 71.77-0.98 70.75-2.38 69.72-3.78 69.37-5.63L69.37-5.63 68.02-5.63 69.25-9.43Q69.37-7.23 70.28-5.76 71.2-4.3 72.72-3.58 74.25-2.85 76.17-2.85L76.17-2.85Q79.22-2.85 80.83-4.65 82.45-6.45 82.45-10L82.45-10 82.45-14.58Q82.45-18.05 80.82-19.85 79.2-21.65 76.1-21.65L76.1-21.65Q74.25-21.65 72.82-20.93 71.4-20.2 70.46-18.95 69.52-17.7 69.17-16.1L69.17-16.1 68.25-18.93 69.4-18.93Q69.77-20.6 70.73-21.96 71.7-23.33 73.37-24.14 75.05-24.95 77.52-24.95L77.52-24.95Q81.92-24.95 84.22-22.21 86.52-19.48 86.52-14.28L86.52-14.28 86.52-10.23Q86.52-4.98 84.18-2.23 81.85 0.53 77.35 0.53ZM69.37 0L65.32 0 65.32-33.13 69.35-33.13 69.35-25.18 69.22-18.18 69.25-17.4 69.25-7.2 69.2-5.9 69.37 0ZM110.67 0L106.64 0 106.82-5.93 106.67-6.55 106.67-14.33 106.69-15.75Q106.69-18.73 105.18-20.15 103.67-21.58 100.39-21.58L100.39-21.58Q97.77-21.58 95.58-20.83 93.39-20.08 91.69-19.07L91.69-19.07 92.07-22.53Q93.02-23.1 94.33-23.66 95.64-24.23 97.33-24.6 99.02-24.98 101.04-24.98L101.04-24.98Q103.67-24.98 105.51-24.34 107.34-23.7 108.48-22.5 109.62-21.3 110.14-19.6 110.67-17.9 110.67-15.8L110.67-15.8 110.67 0ZM98.24 0.53L98.24 0.53Q94.62 0.53 92.68-1.24 90.74-3 90.74-6.28L90.74-6.28 90.74-7Q90.74-10.38 92.83-12.04 94.92-13.7 99.47-14.35L99.47-14.35 107.19-15.45 107.42-12.5 99.97-11.43Q97.17-11.03 95.97-10.06 94.77-9.1 94.77-7.23L94.77-7.23 94.77-6.83Q94.77-4.9 95.96-3.88 97.14-2.85 99.52-2.85L99.52-2.85Q101.62-2.85 103.12-3.58 104.62-4.3 105.54-5.53 106.47-6.75 106.79-8.25L106.79-8.25 107.42-5.5 106.64-5.5Q106.29-3.9 105.33-2.53 104.37-1.15 102.64-0.31 100.92 0.53 98.24 0.53ZM125.62-2.78L126.22-2.78 132.97-24.4 137.17-24.4 129.24 0 122.59 0 114.67-24.4 118.87-24.4 125.62-2.78ZM141.26-24.4L145.29-24.4 145.29-9.22Q145.29-7.3 145.83-5.86 146.36-4.42 147.59-3.64 148.81-2.85 150.89-2.85L150.89-2.85Q152.84-2.85 154.24-3.56 155.64-4.28 156.53-5.53 157.41-6.78 157.74-8.35L157.74-8.35 158.46-5.48 157.59-5.48Q157.21-3.83 156.21-2.46 155.21-1.1 153.53-0.29 151.84 0.53 149.36 0.53L149.36 0.53Q146.49 0.53 144.7-0.56 142.91-1.65 142.09-3.74 141.26-5.83 141.26-8.78L141.26-8.78 141.26-24.4ZM157.56-24.4L161.61-24.4 161.61 0 157.56 0 157.74-5.85 157.56-6.1 157.56-24.4ZM189.83 0L183.23 0 176.63-31.95 180.88-31.95 185.53-8.08 186.41-3.48 186.86-3.48 187.71-8.08 192.38-31.13 198.51-31.13 203.18-8.08 204.03-3.48 204.48-3.48 205.38-8.08 210.03-31.95 214.23-31.95 207.66 0 201.11 0 197.41-18.38 195.66-27.7 195.26-27.7 193.48-18.38 189.83 0ZM229.43 0.55L229.43 0.55Q223.86 0.55 221.03-2.18 218.21-4.9 218.21-9.98L218.21-9.98 218.21-14.33Q218.21-19.48 220.83-22.26 223.46-25.05 228.51-25.05L228.51-25.05Q231.91-25.05 234.18-23.79 236.46-22.53 237.61-20.2 238.76-17.88 238.76-14.65L238.76-14.65 238.76-13.75Q238.76-12.95 238.69-12.15 238.63-11.35 238.53-10.58L238.53-10.58 234.81-10.58Q234.86-11.78 234.87-12.85 234.88-13.93 234.88-14.83L234.88-14.83Q234.88-17.05 234.17-18.59 233.46-20.13 232.04-20.94 230.63-21.75 228.51-21.75L228.51-21.75Q225.36-21.75 223.78-19.93 222.21-18.1 222.21-14.7L222.21-14.7 222.21-12.38 222.23-11.88 222.23-9.55Q222.23-8.03 222.68-6.8 223.13-5.58 224.09-4.69 225.06-3.8 226.54-3.34 228.03-2.88 230.08-2.88L230.08-2.88Q232.46-2.88 234.51-3.5 236.56-4.13 238.36-5.2L238.36-5.2 237.98-1.7Q236.36-0.68 234.21-0.06 232.06 0.55 229.43 0.55ZM237.68-10.58L220.33-10.58 220.33-13.63 237.68-13.63 237.68-10.58ZM262.65 0L258.63 0 258.8-5.93 258.65-6.55 258.65-14.33 258.68-15.75Q258.68-18.73 257.17-20.15 255.65-21.58 252.38-21.58L252.38-21.58Q249.75-21.58 247.57-20.83 245.38-20.08 243.68-19.07L243.68-19.07 244.05-22.53Q245-23.1 246.32-23.66 247.63-24.23 249.32-24.6 251-24.98 253.03-24.98L253.03-24.98Q255.65-24.98 257.49-24.34 259.33-23.7 260.47-22.5 261.6-21.3 262.13-19.6 262.65-17.9 262.65-15.8L262.65-15.8 262.65 0ZM250.23 0.53L250.23 0.53Q246.6 0.53 244.67-1.24 242.73-3 242.73-6.28L242.73-6.28 242.73-7Q242.73-10.38 244.82-12.04 246.9-13.7 251.45-14.35L251.45-14.35 259.18-15.45 259.4-12.5 251.95-11.43Q249.15-11.03 247.95-10.06 246.75-9.1 246.75-7.23L246.75-7.23 246.75-6.83Q246.75-4.9 247.94-3.88 249.13-2.85 251.5-2.85L251.5-2.85Q253.6-2.85 255.1-3.58 256.6-4.3 257.53-5.53 258.45-6.75 258.78-8.25L258.78-8.25 259.4-5.5 258.63-5.5Q258.28-3.9 257.31-2.53 256.35-1.15 254.63-0.31 252.9 0.53 250.23 0.53ZM273 0L268.98 0 268.98-33.13 273-33.13 273 0ZM288.6 0.5L288.6 0.5Q285.77 0.5 284.05-0.35 282.32-1.2 281.55-2.93 280.77-4.65 280.77-7.23L280.77-7.23 280.77-22.63 284.77-22.63 284.77-7.7Q284.77-5.3 285.87-4.16 286.97-3.03 289.57-3.03L289.57-3.03Q291.05-3.03 292.41-3.35 293.77-3.68 294.97-4.28L294.97-4.28 294.6-0.8Q293.42-0.2 291.85 0.15 290.27 0.5 288.6 0.5ZM294.35-20.8L276.77-20.8 276.77-24.05 294.72-24.05 294.35-20.8ZM284.67-23.65L280.8-23.65 280.77-30.5 284.85-31.03 284.67-23.65ZM319.87 0L315.82 0 315.82-15.18Q315.82-17.15 315.28-18.57 314.75-20 313.53-20.79 312.32-21.58 310.22-21.58L310.22-21.58Q308.3-21.58 306.89-20.85 305.5-20.13 304.63-18.89 303.77-17.65 303.42-16.07L303.42-16.07 302.52-18.95 303.57-18.95Q303.94-20.6 304.94-21.96 305.94-23.33 307.63-24.14 309.32-24.95 311.75-24.95L311.75-24.95Q314.64-24.95 316.43-23.85 318.22-22.75 319.05-20.69 319.87-18.63 319.87-15.63L319.87-15.63 319.87 0ZM303.55 0L299.5 0 299.5-33.13 303.52-33.13 303.52-25.18 303.39-18.18 303.55-17.85 303.55 0ZM340.21 0L336.19 0 337.42-31.95 343.84-31.95 351.42-8.85 351.76-8.85 359.34-31.95 365.79-31.95 367.01 0 362.99 0 362.54-13.48 362.12-27.63 361.67-27.63 353.76-3.68 349.44-3.68 341.54-27.63 341.09-27.63 340.64-13.45 340.21 0ZM392.06 0L388.04 0 388.21-5.93 388.06-6.55 388.06-14.33 388.09-15.75Q388.09-18.73 386.57-20.15 385.06-21.58 381.79-21.58L381.79-21.58Q379.16-21.58 376.97-20.83 374.79-20.08 373.09-19.07L373.09-19.07 373.46-22.53Q374.41-23.1 375.72-23.66 377.04-24.23 378.72-24.6 380.41-24.98 382.44-24.98L382.44-24.98Q385.06-24.98 386.9-24.34 388.74-23.7 389.88-22.5 391.01-21.3 391.54-19.6 392.06-17.9 392.06-15.8L392.06-15.8 392.06 0ZM379.64 0.53L379.64 0.53Q376.01 0.53 374.07-1.24 372.14-3 372.14-6.28L372.14-6.28 372.14-7Q372.14-10.38 374.22-12.04 376.31-13.7 380.86-14.35L380.86-14.35 388.59-15.45 388.81-12.5 381.36-11.43Q378.56-11.03 377.36-10.06 376.16-9.1 376.16-7.23L376.16-7.23 376.16-6.83Q376.16-4.9 377.35-3.88 378.54-2.85 380.91-2.85L380.91-2.85Q383.01-2.85 384.51-3.58 386.01-4.3 386.94-5.53 387.86-6.75 388.19-8.25L388.19-8.25 388.81-5.5 388.04-5.5Q387.69-3.9 386.72-2.53 385.76-1.15 384.04-0.31 382.31 0.53 379.64 0.53ZM418.63 0L414.58 0 414.58-15.18Q414.58-17.15 414.05-18.57 413.51-20 412.3-20.79 411.08-21.58 408.98-21.58L408.98-21.58Q407.06-21.58 405.65-20.85 404.23-20.13 403.36-18.89 402.48-17.65 402.13-16.07L402.13-16.07 401.41-18.95 402.28-18.95Q402.69-20.6 403.69-21.96 404.69-23.33 406.37-24.14 408.06-24.95 410.51-24.95L410.51-24.95Q413.41-24.95 415.2-23.85 416.98-22.75 417.81-20.69 418.63-18.63 418.63-15.63L418.63-15.63 418.63 0ZM402.31 0L398.26 0 398.26-24.4 402.31-24.4 402.13-18.55 402.31-18.32 402.31 0ZM443.41 0L439.38 0 439.56-5.93 439.41-6.55 439.41-14.33 439.43-15.75Q439.43-18.73 437.92-20.15 436.41-21.58 433.13-21.58L433.13-21.58Q430.51-21.58 428.32-20.83 426.13-20.08 424.43-19.07L424.43-19.07 424.81-22.53Q425.76-23.1 427.07-23.66 428.38-24.23 430.07-24.6 431.76-24.98 433.78-24.98L433.78-24.98Q436.41-24.98 438.24-24.34 440.08-23.7 441.22-22.5 442.36-21.3 442.88-19.6 443.41-17.9 443.41-15.8L443.41-15.8 443.41 0ZM430.98 0.53L430.98 0.53Q427.36 0.53 425.42-1.24 423.48-3 423.48-6.28L423.48-6.28 423.48-7Q423.48-10.38 425.57-12.04 427.66-13.7 432.21-14.35L432.21-14.35 439.93-15.45 440.16-12.5 432.71-11.43Q429.91-11.03 428.71-10.06 427.51-9.1 427.51-7.23L427.51-7.23 427.51-6.83Q427.51-4.9 428.69-3.88 429.88-2.85 432.26-2.85L432.26-2.85Q434.36-2.85 435.86-3.58 437.36-4.3 438.28-5.53 439.21-6.75 439.53-8.25L439.53-8.25 440.16-5.5 439.38-5.5Q439.03-3.9 438.07-2.53 437.11-1.15 435.38-0.31 433.66 0.53 430.98 0.53ZM459.1-7.3L459.1-7.3Q454.13-7.3 451.47-9.47 448.8-11.65 448.8-15.7L448.8-15.7 448.8-16.32Q448.8-18.85 449.84-20.73 450.88-22.6 453.15-23.66 455.43-24.73 459.1-24.83L459.1-24.83 471.55-25.23 471.55-22.03 464.2-22.28 464.18-22.1Q465.9-21.75 467-20.9 468.1-20.05 468.64-18.78 469.18-17.5 469.18-15.8L469.18-15.8 469.18-15.25Q469.18-11.38 466.63-9.34 464.08-7.3 459.1-7.3ZM458.93 6.15L458.93 6.15 459.5 6.15Q461.75 6.15 463.37 5.81 464.98 5.48 465.85 4.75 466.73 4.03 466.73 2.83L466.73 2.83 466.73 2.73Q466.73 1.33 465.72 0.59 464.7-0.15 462.25-0.38L462.25-0.38 455.35-1 456.5-1.05Q455.1-0.85 454.04-0.4 452.98 0.05 452.38 0.79 451.78 1.53 451.78 2.63L451.78 2.63 451.78 2.68Q451.78 3.95 452.65 4.73 453.53 5.5 455.13 5.83 456.73 6.15 458.93 6.15ZM459.43 9.38L458.7 9.38Q455.4 9.38 453.02 8.81 450.63 8.25 449.32 6.99 448 5.73 448 3.6L448 3.6 448 3.5Q448 2 448.72 1 449.43 0 450.64-0.58 451.85-1.15 453.35-1.35L453.35-1.35 453.33-1.5Q451.28-1.85 450.3-2.71 449.33-3.58 449.33-4.95L449.33-4.95 449.33-4.98Q449.33-5.93 449.77-6.6 450.2-7.28 451.09-7.68 451.98-8.08 453.35-8.18L453.35-8.18 453.35-8.68 458-7.5 456.1-7.55Q454.4-7.53 453.75-7.14 453.1-6.75 453.1-5.98L453.1-5.98 453.1-5.95Q453.1-5.13 454.03-4.7 454.95-4.28 457.18-4.03L457.18-4.03 463.1-3.43Q466.98-3.03 468.75-1.56 470.53-0.1 470.53 2.75L470.53 2.75 470.53 2.88Q470.53 5.15 469.18 6.6 467.83 8.05 465.35 8.71 462.88 9.38 459.43 9.38L459.43 9.38ZM459.05-10.3L459.05-10.3Q461.15-10.3 462.54-10.91 463.93-11.53 464.64-12.76 465.35-14 465.35-15.8L465.35-15.8 465.35-16.4Q465.35-18.15 464.67-19.38 463.98-20.6 462.6-21.24 461.23-21.88 459.15-21.88L459.15-21.88 459-21.88Q456.75-21.88 455.34-21.19 453.93-20.5 453.29-19.26 452.65-18.03 452.65-16.38L452.65-16.38 452.65-15.8Q452.65-14 453.37-12.78 454.08-11.55 455.5-10.93 456.93-10.3 459.05-10.3ZM485.48 0.55L485.48 0.55Q479.9 0.55 477.08-2.18 474.25-4.9 474.25-9.98L474.25-9.98 474.25-14.33Q474.25-19.48 476.88-22.26 479.5-25.05 484.55-25.05L484.55-25.05Q487.95-25.05 490.23-23.79 492.5-22.53 493.65-20.2 494.8-17.88 494.8-14.65L494.8-14.65 494.8-13.75Q494.8-12.95 494.74-12.15 494.68-11.35 494.58-10.58L494.58-10.58 490.85-10.58Q490.9-11.78 490.91-12.85 490.93-13.93 490.93-14.83L490.93-14.83Q490.93-17.05 490.21-18.59 489.5-20.13 488.09-20.94 486.68-21.75 484.55-21.75L484.55-21.75Q481.4-21.75 479.83-19.93 478.25-18.1 478.25-14.7L478.25-14.7 478.25-12.38 478.28-11.88 478.28-9.55Q478.28-8.03 478.73-6.8 479.18-5.58 480.14-4.69 481.1-3.8 482.59-3.34 484.08-2.88 486.13-2.88L486.13-2.88Q488.5-2.88 490.55-3.5 492.6-4.13 494.4-5.2L494.4-5.2 494.03-1.7Q492.4-0.68 490.25-0.06 488.1 0.55 485.48 0.55ZM493.73-10.58L476.38-10.58 476.38-13.63 493.73-13.63 493.73-10.58ZM504.05-14.93L504.05-14.93 503.13-18.05 504.13-18.1Q504.92-21.2 506.88-22.99 508.82-24.78 512.05-24.78L512.05-24.78Q512.85-24.78 513.49-24.65 514.13-24.53 514.63-24.35L514.63-24.35 514.88-20.43Q514.25-20.63 513.49-20.75 512.73-20.88 511.8-20.88L511.8-20.88Q509.05-20.88 507.01-19.35 504.97-17.82 504.05-14.93ZM504.25 0L500.2 0 500.2-24.4 504.15-24.4 503.95-17.2 504.25-16.9 504.25 0ZM526.47 0.55L526.47 0.55Q523.52 0.55 521.32-0.09 519.12-0.73 517.67-1.48L517.67-1.48 517.3-5.23Q519.12-4.28 521.31-3.58 523.5-2.88 526.27-2.88L526.27-2.88Q529.1-2.88 530.52-3.78 531.95-4.67 531.95-6.45L531.95-6.45 531.95-6.73Q531.95-7.88 531.41-8.63 530.87-9.38 529.47-9.95 528.07-10.53 525.5-11.1L525.5-11.1Q522.42-11.78 520.65-12.69 518.87-13.6 518.11-14.95 517.35-16.3 517.35-18.25L517.35-18.25 517.35-18.48Q517.35-21.68 519.57-23.33 521.8-24.98 526.27-24.98L526.27-24.98Q529.15-24.98 531.26-24.33 533.37-23.68 534.72-22.88L534.72-22.88 535.1-19.45Q533.47-20.4 531.37-21.03 529.27-21.65 526.65-21.65L526.65-21.65Q524.75-21.65 523.57-21.26 522.4-20.88 521.87-20.16 521.35-19.45 521.35-18.45L521.35-18.45 521.35-18.25Q521.35-17.15 521.87-16.39 522.4-15.63 523.76-15.06 525.12-14.5 527.55-13.98L527.55-13.98Q530.67-13.35 532.51-12.48 534.35-11.6 535.15-10.26 535.95-8.93 535.95-6.83L535.95-6.83 535.95-6.4Q535.95-2.95 533.55-1.2 531.15 0.55 526.47 0.55Z" opacity="1" transform="matrix(1,0,0,1,0,0)" fill="#ffffff" class="wordmark-text-0" data-fill-palette-color="primary" id="text-0"></path></svg></g></svg></g><g transform="matrix(1,0,0,1,75.54432,39.001301041013605)"><svg viewBox="0 0 244.43135999999998 15.85118691449814" height="15.85118691449814" width="244.43135999999998"><g transform="matrix(1,0,0,1,0,0)"><svg width="244.43135999999998" viewBox="0.95 -33.8 665.7199999999999 43.18" height="15.85118691449814" data-palette-color="#08c076"><path d="M26.48-31.95L15.5-9.6 11.93-9.6 0.95-31.95 5.33-31.95 11.2-19.73 13.55-14.43 13.88-14.43 16.23-19.73 22.08-31.95 26.48-31.95ZM15.75-13.48L15.75 0 11.68 0 11.68-13.48 15.75-13.48ZM36.5 0.63L36.5 0.63Q31.25 0.63 28.54-2.21 25.82-5.05 25.82-10.38L25.82-10.38 25.82-14.1Q25.82-19.4 28.55-22.23 31.27-25.05 36.5-25.05L36.5-25.05Q41.75-25.05 44.46-22.23 47.17-19.4 47.17-14.1L47.17-14.1 47.17-10.38Q47.17-5.05 44.46-2.21 41.75 0.63 36.5 0.63ZM36.5-2.68L36.5-2.68Q39.75-2.68 41.44-4.6 43.12-6.53 43.12-10.15L43.12-10.15 43.12-14.33Q43.12-17.93 41.44-19.84 39.75-21.75 36.5-21.75L36.5-21.75Q33.27-21.75 31.57-19.84 29.87-17.93 29.87-14.33L29.87-14.33 29.87-10.15Q29.87-6.53 31.57-4.6 33.27-2.68 36.5-2.68ZM52.5-8.78L52.5-24.4 56.52-24.4 56.52-9.22Q56.52-7.3 57.06-5.86 57.6-4.42 58.82-3.64 60.05-2.85 62.12-2.85L62.12-2.85Q64.07-2.85 65.47-3.56 66.87-4.28 67.76-5.53 68.65-6.78 68.97-8.35L68.97-8.35 69.7-5.48 68.82-5.48Q68.45-3.83 67.45-2.46 66.45-1.1 64.76-0.29 63.07 0.53 60.6 0.53L60.6 0.53Q57.72 0.53 55.93-0.56 54.15-1.65 53.32-3.74 52.5-5.83 52.5-8.78L52.5-8.78ZM68.8-6.1L68.8-24.4 72.84-24.4 72.84 0 68.8 0 68.97-5.85 68.8-6.1ZM83.29-14.93L83.29-14.93 82.37-18.05 83.37-18.1Q84.17-21.2 86.12-22.99 88.07-24.78 91.29-24.78L91.29-24.78Q92.09-24.78 92.73-24.65 93.37-24.53 93.87-24.35L93.87-24.35 94.12-20.43Q93.49-20.63 92.73-20.75 91.97-20.88 91.04-20.88L91.04-20.88Q88.29-20.88 86.26-19.35 84.22-17.82 83.29-14.93ZM83.49-16.9L83.49 0 79.44 0 79.44-24.4 83.39-24.4 83.19-17.2 83.49-16.9ZM122.06 0.53L122.06 0.53Q119.81 0.53 118.16-0.23 116.51-0.98 115.49-2.38 114.46-3.78 114.11-5.63L114.11-5.63 112.79-5.63 113.96-9.43Q114.06-7.23 114.95-5.76 115.84-4.3 117.36-3.58 118.89-2.85 120.81-2.85L120.81-2.85Q123.89-2.85 125.53-4.65 127.16-6.45 127.16-9.93L127.16-9.93 127.16-14.6Q127.16-18.05 125.54-19.85 123.91-21.65 120.81-21.65L120.81-21.65Q118.96-21.65 117.54-20.93 116.11-20.2 115.18-18.95 114.24-17.7 113.89-16.1L113.89-16.1 112.89-18.93 114.06-18.93Q114.46-20.6 115.43-21.96 116.39-23.33 118.08-24.14 119.76-24.95 122.24-24.95L122.24-24.95Q126.64-24.95 128.94-22.21 131.24-19.48 131.24-14.28L131.24-14.28 131.24-10.23Q131.24-4.98 128.93-2.23 126.61 0.53 122.06 0.53ZM114.06 0.68L114.06 8.6 110.04 8.6 110.04-24.4 114.09-24.4 113.91-18.53 113.96-17.28 113.96-7 113.94-6.18 114.06 0.68ZM155.31-15.8L155.31 0 151.29 0 151.46-5.93 151.31-6.55 151.31-14.33 151.34-15.75Q151.34-18.73 149.82-20.15 148.31-21.58 145.04-21.58L145.04-21.58Q142.41-21.58 140.22-20.83 138.04-20.08 136.34-19.07L136.34-19.07 136.71-22.53Q137.66-23.1 138.97-23.66 140.29-24.23 141.97-24.6 143.66-24.98 145.69-24.98L145.69-24.98Q148.31-24.98 150.15-24.34 151.99-23.7 153.12-22.5 154.26-21.3 154.79-19.6 155.31-17.9 155.31-15.8L155.31-15.8ZM142.89 0.53L142.89 0.53Q139.26 0.53 137.32-1.24 135.39-3 135.39-6.28L135.39-6.28 135.39-7Q135.39-10.38 137.47-12.04 139.56-13.7 144.11-14.35L144.11-14.35 151.84-15.45 152.06-12.5 144.61-11.43Q141.81-11.03 140.61-10.06 139.41-9.1 139.41-7.23L139.41-7.23 139.41-6.83Q139.41-4.9 140.6-3.88 141.79-2.85 144.16-2.85L144.16-2.85Q146.26-2.85 147.76-3.58 149.26-4.3 150.19-5.53 151.11-6.75 151.44-8.25L151.44-8.25 152.06-5.5 151.29-5.5Q150.94-3.9 149.97-2.53 149.01-1.15 147.29-0.31 145.56 0.53 142.89 0.53ZM165.36-14.93L165.36-14.93 164.43-18.05 165.43-18.1Q166.23-21.2 168.18-22.99 170.13-24.78 173.36-24.78L173.36-24.78Q174.16-24.78 174.8-24.65 175.43-24.53 175.93-24.35L175.93-24.35 176.18-20.43Q175.56-20.63 174.8-20.75 174.03-20.88 173.11-20.88L173.11-20.88Q170.36-20.88 168.32-19.35 166.28-17.82 165.36-14.93ZM165.56-16.9L165.56 0 161.51 0 161.51-24.4 165.46-24.4 165.26-17.2 165.56-16.9ZM189.93 0.5L189.93 0.5Q187.11 0.5 185.38-0.35 183.66-1.2 182.88-2.93 182.11-4.65 182.11-7.23L182.11-7.23 182.11-22.63 186.11-22.63 186.11-7.7Q186.11-5.3 187.21-4.16 188.31-3.03 190.91-3.03L190.91-3.03Q192.38-3.03 193.74-3.35 195.11-3.68 196.31-4.28L196.31-4.28 195.93-0.8Q194.76-0.2 193.18 0.15 191.61 0.5 189.93 0.5ZM196.06-24.05L195.68-20.8 178.11-20.8 178.11-24.05 196.06-24.05ZM186.18-31.03L186.01-23.65 182.13-23.65 182.11-30.5 186.18-31.03ZM221.2-15.63L221.2 0 217.15 0 217.15-15.18Q217.15-17.15 216.62-18.57 216.08-20 214.87-20.79 213.65-21.58 211.55-21.58L211.55-21.58Q209.63-21.58 208.22-20.85 206.8-20.13 205.93-18.89 205.05-17.65 204.7-16.07L204.7-16.07 203.98-18.95 204.85-18.95Q205.25-20.6 206.25-21.96 207.25-23.33 208.94-24.14 210.63-24.95 213.08-24.95L213.08-24.95Q215.98-24.95 217.77-23.85 219.55-22.75 220.38-20.69 221.2-18.63 221.2-15.63L221.2-15.63ZM204.88-18.32L204.88 0 200.83 0 200.83-24.4 204.88-24.4 204.7-18.55 204.88-18.32ZM237.73 0.55L237.73 0.55Q232.15 0.55 229.33-2.18 226.5-4.9 226.5-9.98L226.5-9.98 226.5-14.33Q226.5-19.48 229.13-22.26 231.75-25.05 236.8-25.05L236.8-25.05Q240.2-25.05 242.48-23.79 244.75-22.53 245.9-20.2 247.05-17.88 247.05-14.65L247.05-14.65 247.05-13.75Q247.05-12.95 246.99-12.15 246.93-11.35 246.83-10.58L246.83-10.58 243.1-10.58Q243.15-11.78 243.16-12.85 243.18-13.93 243.18-14.83L243.18-14.83Q243.18-17.05 242.46-18.59 241.75-20.13 240.34-20.94 238.93-21.75 236.8-21.75L236.8-21.75Q233.65-21.75 232.08-19.93 230.5-18.1 230.5-14.7L230.5-14.7 230.5-12.38 230.53-11.88 230.53-9.55Q230.53-8.03 230.98-6.8 231.43-5.58 232.39-4.69 233.35-3.8 234.84-3.34 236.33-2.88 238.38-2.88L238.38-2.88Q240.75-2.88 242.8-3.5 244.85-4.13 246.65-5.2L246.65-5.2 246.28-1.7Q244.65-0.68 242.5-0.06 240.35 0.55 237.73 0.55ZM245.98-13.63L245.98-10.58 228.63-10.58 228.63-13.63 245.98-13.63ZM256.3-14.93L256.3-14.93 255.37-18.05 256.37-18.1Q257.17-21.2 259.12-22.99 261.07-24.78 264.3-24.78L264.3-24.78Q265.1-24.78 265.74-24.65 266.37-24.53 266.87-24.35L266.87-24.35 267.12-20.43Q266.5-20.63 265.74-20.75 264.97-20.88 264.05-20.88L264.05-20.88Q261.3-20.88 259.26-19.35 257.22-17.82 256.3-14.93ZM256.5-16.9L256.5 0 252.45 0 252.45-24.4 256.4-24.4 256.2-17.2 256.5-16.9ZM287.17-24.4L287.17 0 283.12 0 283.12-24.4 287.17-24.4ZM285.14-28.4L285.14-28.4Q283.89-28.4 283.28-29.06 282.67-29.73 282.67-30.88L282.67-30.88 282.67-31Q282.67-32.18 283.28-32.83 283.89-33.48 285.14-33.48L285.14-33.48Q286.39-33.48 287.02-32.83 287.64-32.18 287.64-31L287.64-31 287.64-30.88Q287.64-29.7 287.02-29.05 286.39-28.4 285.14-28.4ZM314.24-15.63L314.24 0 310.19 0 310.19-15.18Q310.19-17.15 309.65-18.57 309.12-20 307.9-20.79 306.69-21.58 304.59-21.58L304.59-21.58Q302.67-21.58 301.25-20.85 299.84-20.13 298.97-18.89 298.09-17.65 297.74-16.07L297.74-16.07 297.02-18.95 297.89-18.95Q298.29-20.6 299.29-21.96 300.29-23.33 301.98-24.14 303.67-24.95 306.12-24.95L306.12-24.95Q309.02-24.95 310.8-23.85 312.59-22.75 313.42-20.69 314.24-18.63 314.24-15.63L314.24-15.63ZM297.92-18.32L297.92 0 293.87 0 293.87-24.4 297.92-24.4 297.74-18.55 297.92-18.32ZM340.66-33.8L340.66-33.8Q342.54-33.8 344.02-33.46 345.51-33.13 346.76-32.63L346.76-32.63 347.16-29.45Q345.94-29.9 344.7-30.16 343.46-30.43 341.91-30.43L341.91-30.43Q340.04-30.43 338.9-29.94 337.76-29.45 337.27-28.56 336.79-27.68 336.79-26.43L336.79-26.43 336.79-26.3Q336.79-25.43 337.01-24.64 337.24-23.85 337.51-23.2L337.51-23.2 334.79-23.1 334.79-23.6Q334.01-24.2 333.42-25.28 332.84-26.35 332.84-27.78L332.84-27.78 332.84-27.9Q332.84-30.58 334.74-32.19 336.64-33.8 340.66-33.8ZM337.69-22.23L337.69 0 333.66 0 333.66-22.23 337.69-22.23ZM347.06-23.48L346.69-20.25 329.64-20.25 329.64-23.48 335.21-23.45 336.86-23.48 347.06-23.48ZM355.31-24.4L355.31 0 351.26 0 351.26-24.4 355.31-24.4ZM353.28-28.4L353.28-28.4Q352.03-28.4 351.42-29.06 350.81-29.73 350.81-30.88L350.81-30.88 350.81-31Q350.81-32.18 351.42-32.83 352.03-33.48 353.28-33.48L353.28-33.48Q354.53-33.48 355.16-32.83 355.78-32.18 355.78-31L355.78-31 355.78-30.88Q355.78-29.7 355.16-29.05 354.53-28.4 353.28-28.4ZM382.38-15.63L382.38 0 378.33 0 378.33-15.18Q378.33-17.15 377.79-18.57 377.25-20 376.04-20.79 374.83-21.58 372.73-21.58L372.73-21.58Q370.81-21.58 369.39-20.85 367.98-20.13 367.1-18.89 366.23-17.65 365.88-16.07L365.88-16.07 365.15-18.95 366.03-18.95Q366.43-20.6 367.43-21.96 368.43-23.33 370.12-24.14 371.81-24.95 374.25-24.95L374.25-24.95Q377.15-24.95 378.94-23.85 380.73-22.75 381.56-20.69 382.38-18.63 382.38-15.63L382.38-15.63ZM366.06-18.32L366.06 0 362 0 362-24.4 366.06-24.4 365.88-18.55 366.06-18.32ZM407.15-15.8L407.15 0 403.13 0 403.3-5.93 403.15-6.55 403.15-14.33 403.18-15.75Q403.18-18.73 401.66-20.15 400.15-21.58 396.88-21.58L396.88-21.58Q394.25-21.58 392.06-20.83 389.88-20.08 388.18-19.07L388.18-19.07 388.55-22.53Q389.5-23.1 390.81-23.66 392.13-24.23 393.81-24.6 395.5-24.98 397.53-24.98L397.53-24.98Q400.15-24.98 401.99-24.34 403.83-23.7 404.96-22.5 406.1-21.3 406.63-19.6 407.15-17.9 407.15-15.8L407.15-15.8ZM394.73 0.53L394.73 0.53Q391.1 0.53 389.16-1.24 387.23-3 387.23-6.28L387.23-6.28 387.23-7Q387.23-10.38 389.31-12.04 391.4-13.7 395.95-14.35L395.95-14.35 403.68-15.45 403.9-12.5 396.45-11.43Q393.65-11.03 392.45-10.06 391.25-9.1 391.25-7.23L391.25-7.23 391.25-6.83Q391.25-4.9 392.44-3.88 393.63-2.85 396-2.85L396-2.85Q398.1-2.85 399.6-3.58 401.1-4.3 402.03-5.53 402.95-6.75 403.28-8.25L403.28-8.25 403.9-5.5 403.13-5.5Q402.78-3.9 401.81-2.53 400.85-1.15 399.13-0.31 397.4 0.53 394.73 0.53ZM433.72-15.63L433.72 0 429.67 0 429.67-15.18Q429.67-17.15 429.14-18.57 428.6-20 427.39-20.79 426.17-21.58 424.07-21.58L424.07-21.58Q422.15-21.58 420.74-20.85 419.32-20.13 418.45-18.89 417.57-17.65 417.22-16.07L417.22-16.07 416.5-18.95 417.37-18.95Q417.77-20.6 418.77-21.96 419.77-23.33 421.46-24.14 423.15-24.95 425.6-24.95L425.6-24.95Q428.5-24.95 430.29-23.85 432.07-22.75 432.9-20.69 433.72-18.63 433.72-15.63L433.72-15.63ZM417.4-18.32L417.4 0 413.35 0 413.35-24.4 417.4-24.4 417.22-18.55 417.4-18.32ZM449.4 0.55L449.4 0.55Q444.15 0.55 441.58-2.29 439.02-5.13 439.02-10.33L439.02-10.33 439.02-14.13Q439.02-19.35 441.6-22.16 444.17-24.98 449.4-24.98L449.4-24.98Q450.95-24.98 452.22-24.69 453.5-24.4 454.51-23.94 455.52-23.48 456.22-22.98L456.22-22.98 456.57-19.45Q455.4-20.35 453.78-20.98 452.17-21.6 450-21.6L450-21.6Q446.5-21.6 444.78-19.66 443.07-17.73 443.07-14.03L443.07-14.03 443.07-10.43Q443.07-6.8 444.78-4.85 446.5-2.9 450-2.9L450-2.9Q452.25-2.9 453.88-3.53 455.52-4.15 456.8-5.05L456.8-5.05 456.42-1.48Q455.32-0.73 453.55-0.09 451.77 0.55 449.4 0.55ZM465.82-24.4L465.82 0 461.77 0 461.77-24.4 465.82-24.4ZM463.79-28.4L463.79-28.4Q462.54-28.4 461.93-29.06 461.32-29.73 461.32-30.88L461.32-30.88 461.32-31Q461.32-32.18 461.93-32.83 462.54-33.48 463.79-33.48L463.79-33.48Q465.04-33.48 465.67-32.83 466.29-32.18 466.29-31L466.29-31 466.29-30.88Q466.29-29.7 465.67-29.05 465.04-28.4 463.79-28.4ZM491.02-15.8L491.02 0 486.99 0 487.17-5.93 487.02-6.55 487.02-14.33 487.04-15.75Q487.04-18.73 485.53-20.15 484.02-21.58 480.74-21.58L480.74-21.58Q478.12-21.58 475.93-20.83 473.74-20.08 472.04-19.07L472.04-19.07 472.42-22.53Q473.37-23.1 474.68-23.66 475.99-24.23 477.68-24.6 479.37-24.98 481.39-24.98L481.39-24.98Q484.02-24.98 485.85-24.34 487.69-23.7 488.83-22.5 489.97-21.3 490.49-19.6 491.02-17.9 491.02-15.8L491.02-15.8ZM478.59 0.53L478.59 0.53Q474.97 0.53 473.03-1.24 471.09-3 471.09-6.28L471.09-6.28 471.09-7Q471.09-10.38 473.18-12.04 475.27-13.7 479.82-14.35L479.82-14.35 487.54-15.45 487.77-12.5 480.32-11.43Q477.52-11.03 476.32-10.06 475.12-9.1 475.12-7.23L475.12-7.23 475.12-6.83Q475.12-4.9 476.3-3.88 477.49-2.85 479.87-2.85L479.87-2.85Q481.97-2.85 483.47-3.58 484.97-4.3 485.89-5.53 486.82-6.75 487.14-8.25L487.14-8.25 487.77-5.5 486.99-5.5Q486.64-3.9 485.68-2.53 484.72-1.15 482.99-0.31 481.27 0.53 478.59 0.53ZM501.36-33.13L501.36 0 497.34 0 497.34-33.13 501.36-33.13ZM529.53-7.3L529.53-7.3Q524.56-7.3 521.9-9.47 519.23-11.65 519.23-15.7L519.23-15.7 519.23-16.32Q519.23-18.85 520.27-20.73 521.31-22.6 523.58-23.66 525.86-24.73 529.53-24.83L529.53-24.83 541.98-25.23 541.98-22.03 534.63-22.28 534.61-22.1Q536.33-21.75 537.43-20.9 538.53-20.05 539.07-18.78 539.61-17.5 539.61-15.8L539.61-15.8 539.61-15.25Q539.61-11.38 537.06-9.34 534.51-7.3 529.53-7.3ZM529.36 6.15L529.36 6.15 529.93 6.15Q532.18 6.15 533.8 5.81 535.41 5.48 536.28 4.75 537.16 4.03 537.16 2.83L537.16 2.83 537.16 2.73Q537.16 1.33 536.15 0.59 535.13-0.15 532.68-0.38L532.68-0.38 525.78-1 526.93-1.05Q525.53-0.85 524.47-0.4 523.41 0.05 522.81 0.79 522.21 1.53 522.21 2.63L522.21 2.63 522.21 2.68Q522.21 3.95 523.08 4.73 523.96 5.5 525.56 5.83 527.16 6.15 529.36 6.15ZM529.86 9.38L529.86 9.38 529.13 9.38Q525.83 9.38 523.45 8.81 521.06 8.25 519.75 6.99 518.43 5.73 518.43 3.6L518.43 3.6 518.43 3.5Q518.43 2 519.15 1 519.86 0 521.07-0.58 522.28-1.15 523.78-1.35L523.78-1.35 523.76-1.5Q521.71-1.85 520.73-2.71 519.76-3.58 519.76-4.95L519.76-4.95 519.76-4.98Q519.76-5.93 520.2-6.6 520.63-7.28 521.52-7.68 522.41-8.08 523.78-8.18L523.78-8.18 523.78-8.68 528.43-7.5 526.53-7.55Q524.83-7.53 524.18-7.14 523.53-6.75 523.53-5.98L523.53-5.98 523.53-5.95Q523.53-5.13 524.46-4.7 525.38-4.28 527.61-4.03L527.61-4.03 533.53-3.43Q537.41-3.03 539.18-1.56 540.96-0.1 540.96 2.75L540.96 2.75 540.96 2.88Q540.96 5.15 539.61 6.6 538.26 8.05 535.78 8.71 533.31 9.38 529.86 9.38ZM529.48-10.3L529.48-10.3Q531.58-10.3 532.97-10.91 534.36-11.53 535.07-12.76 535.78-14 535.78-15.8L535.78-15.8 535.78-16.4Q535.78-18.15 535.1-19.38 534.41-20.6 533.03-21.24 531.66-21.88 529.58-21.88L529.58-21.88 529.43-21.88Q527.18-21.88 525.77-21.19 524.36-20.5 523.72-19.26 523.08-18.03 523.08-16.38L523.08-16.38 523.08-15.8Q523.08-14 523.8-12.78 524.51-11.55 525.93-10.93 527.36-10.3 529.48-10.3ZM549.51-14.93L549.51-14.93 548.58-18.05 549.58-18.1Q550.38-21.2 552.33-22.99 554.28-24.78 557.51-24.78L557.51-24.78Q558.31-24.78 558.94-24.65 559.58-24.53 560.08-24.35L560.08-24.35 560.33-20.43Q559.71-20.63 558.94-20.75 558.18-20.88 557.26-20.88L557.26-20.88Q554.51-20.88 552.47-19.35 550.43-17.82 549.51-14.93ZM549.71-16.9L549.71 0 545.66 0 545.66-24.4 549.61-24.4 549.41-17.2 549.71-16.9ZM573.35 0.63L573.35 0.63Q568.1 0.63 565.39-2.21 562.68-5.05 562.68-10.38L562.68-10.38 562.68-14.1Q562.68-19.4 565.4-22.23 568.13-25.05 573.35-25.05L573.35-25.05Q578.6-25.05 581.32-22.23 584.03-19.4 584.03-14.1L584.03-14.1 584.03-10.38Q584.03-5.05 581.32-2.21 578.6 0.63 573.35 0.63ZM573.35-2.68L573.35-2.68Q576.6-2.68 578.29-4.6 579.98-6.53 579.98-10.15L579.98-10.15 579.98-14.33Q579.98-17.93 578.29-19.84 576.6-21.75 573.35-21.75L573.35-21.75Q570.13-21.75 568.43-19.84 566.73-17.93 566.73-14.33L566.73-14.33 566.73-10.15Q566.73-6.53 568.43-4.6 570.13-2.68 573.35-2.68ZM603.4-17.35L599.28 0 593.05 0 587.05-24.4 591.23-24.4 596.03-2.95 596.5-2.95 601.5-23.75 607.23-23.75 612.23-2.95 612.68-2.95 617.53-24.4 621.68-24.4 615.68 0 609.48 0 605.35-17.35 604.55-20.83 604.18-20.83 603.4-17.35ZM635.4 0.5L635.4 0.5Q632.57 0.5 630.85-0.35 629.12-1.2 628.35-2.93 627.57-4.65 627.57-7.23L627.57-7.23 627.57-22.63 631.57-22.63 631.57-7.7Q631.57-5.3 632.67-4.16 633.77-3.03 636.37-3.03L636.37-3.03Q637.85-3.03 639.21-3.35 640.57-3.68 641.77-4.28L641.77-4.28 641.4-0.8Q640.22-0.2 638.65 0.15 637.07 0.5 635.4 0.5ZM641.52-24.05L641.15-20.8 623.57-20.8 623.57-24.05 641.52-24.05ZM631.65-31.03L631.47-23.65 627.6-23.65 627.57-30.5 631.65-31.03ZM666.67-15.63L666.67 0 662.62 0 662.62-15.18Q662.62-17.15 662.08-18.57 661.55-20 660.33-20.79 659.12-21.58 657.02-21.58L657.02-21.58Q655.1-21.58 653.7-20.85 652.3-20.13 651.43-18.89 650.57-17.65 650.22-16.07L650.22-16.07 649.32-18.95 650.37-18.95Q650.75-20.6 651.75-21.96 652.75-23.33 654.43-24.14 656.12-24.95 658.55-24.95L658.55-24.95Q661.45-24.95 663.23-23.85 665.02-22.75 665.85-20.69 666.67-18.63 666.67-15.63L666.67-15.63ZM650.35-17.85L650.35 0 646.3 0 646.3-33.13 650.32-33.13 650.32-25.18 650.2-18.18 650.35-17.85Z" opacity="1" transform="matrix(1,0,0,1,0,0)" fill="#08c076" class="slogan-text-1" data-fill-palette-color="secondary" id="text-1"></path></svg></g></svg></g></svg></g></svg></g><g transform="matrix(1,0,0,1,133.2704576354975,0)"><svg viewBox="0 0 130.9566847290049 75.80613835451724" height="75.80613835451724" width="130.9566847290049"><g><svg xmlns="http://www.w3.org/2000/svg" xmlns:xlink="http://www.w3.org/1999/xlink" version="1.1" x="8.000000000000007" y="0" viewBox="4.986 20.316604425764602 90.02799999999999 59.36736119233729" enable-background="new 0 0 100 100" xml:space="preserve" height="75.80613835451724" width="114.95668472900489" class="icon-icon-0" data-fill-palette-color="accent" id="icon-0"><g fill="#08c076" data-fill-palette-color="accent"><path fill="#08c076" d="M45.568 70.684C44.554 70.125 43.277 70.5 42.772 71.473L40.005 76.579C39.492 77.56 39.935 78.795 40.94 79.38 41.955 79.989 43.248 79.651 43.765 78.651L46.557 73.485C47.063 72.495 46.6 71.247 45.568 70.684" data-fill-palette-color="accent"></path><path fill="#08c076" d="M38.917 66.66C37.777 66.043 36.334 66.46 35.778 67.555L32.824 73.092C32.253 74.194 32.754 75.571 33.885 76.235 35.02 76.919 36.476 76.531 37.052 75.414L40.01 69.81C40.591 68.695 40.064 67.305 38.917 66.66" data-fill-palette-color="accent"></path><path fill="#08c076" d="M31.355 63.066C30.14 62.445 28.646 62.92 28.083 64.078L25.143 69.953C24.562 71.117 25.13 72.545 26.328 73.199 27.547 73.879 29.069 73.431 29.641 72.257L32.6 66.319C33.17 65.146 32.586 63.697 31.355 63.066" data-fill-palette-color="accent"></path><path fill="#08c076" d="M10.495 59.467L9.317 60.446C8.303 61.311 8.257 62.88 9.126 63.977 9.985 65.118 11.588 65.309 12.606 64.432L14.984 62.453z" data-fill-palette-color="accent"></path><path fill="#08c076" d="M35.537 28.264S39.192 25.372 42.668 21.721C42.668 21.721 43.865 20.615 45.814 20.448 47.771 20.273 55.501 19.847 61.371 22.652 61.371 22.652 63.404 23.591 66.296 25.456 66.296 25.456 72.413 28.519 75.727 27.839L86.858 24.947 95.014 48.912 85.755 53.503S85.408 52.231 83.46 50.785L62.562 35.404S53.292 28.69 48.022 28.861C48.022 28.861 46.24 28.514 44.712 30.217 43.181 31.92 37.063 38.292 31.797 36.413 31.797 36.413 35.786 35.483 38.761 31.577 38.762 31.577 39.363 30.472 35.537 28.264" data-fill-palette-color="accent"></path><path fill="#08c076" d="M28.229 34.043L33.838 29.624S35.281 30.217 36.128 31.239C36.129 31.239 32.303 35.738 28.229 34.043" data-fill-palette-color="accent"></path><path fill="#08c076" d="M4.986 53.716L9.576 27.589S16.504 30.56 20.743 28.352C20.743 28.352 28.396 23.419 32.222 23.591L36.3 24.1S34.347 26.224 31.709 27.755C29.076 29.282 26.021 32.174 24.744 33.447 24.744 33.447 23.551 34.724 24.653 35.909 25.762 37.098 29.673 40.328 33.578 40.244 37.488 40.161 42.667 37.783 47.091 32.508 47.091 32.508 47.859 31.92 50.579 32.767 53.292 33.614 56.779 35.238 59.58 37.528 61.592 39.172 79.039 51.712 81.677 54.014 84.307 56.305 82.696 58.52 82.696 58.52S81.248 61.233 78.278 59.364C75.301 57.498 60.434 47.89 60.434 47.89S58.739 46.784 57.799 48.145C57.799 48.145 56.44 49.681 58.225 50.866L74.795 61.658S76.919 63.189 75.217 65.4C73.52 67.613 72.162 67.015 71.561 66.67 70.973 66.336 54.145 55.457 54.145 55.457S52.705 54.605 51.854 55.967C50.998 57.327 52.108 58.6 52.108 58.6L66.129 67.615S67.997 69.309 66.716 71.091C65.448 72.877 64.43 73.044 63.07 72.114 61.708 71.175 46.327 61.405 46.327 61.405S44.883 60.302 43.944 61.835C43.944 61.835 42.667 63.105 44.537 64.552 46.406 65.992 55.416 71.781 55.416 71.781S57.457 72.796 56.102 75.007C54.737 77.215 53.039 76.363 52.53 76.195 52.016 76.023 49.05 74.748 49.05 74.748S51.851 70.842 47.606 68.038C47.606 68.038 45.733 66.586 43.271 67.525 43.271 67.525 42.929 65.488 40.295 63.958 40.295 63.958 38.083 62.763 35.534 63.958 35.534 63.958 35.45 61.495 32.14 60.048 32.14 60.048 28.485 58.692 26.023 61.754L24.057 65.738z" data-fill-palette-color="accent"></path></g></svg></g></svg></g><g><rect width="56.73733763549754" height="2.8454379643495074" y="71.96070039016774" x="264.2271423645024" fill="#08c076" data-fill-palette-color="secondary"></rect><rect width="56.73733763549754" height="2.8454379643495074" y="71.96070039016774" x="76.53311999999997" fill="#08c076" data-fill-palette-color="secondary"></rect></g></svg></g><defs></defs></svg><rect width="395.52" height="147.66332859657632" fill="none" stroke="none" visibility="hidden"></rect></g></svg></g></svg>